<?xml version="1.0" standalone="no"?>
<!DOCTYPE svg PUBLIC "-//W3C//DTD SVG 20010904//EN"
 "http://www.w3.org/TR/2001/REC-SVG-20010904/DTD/svg10.dtd">
<svg version="1.0" xmlns="http://www.w3.org/2000/svg"
 width="700.000000pt" height="700.000000pt" viewBox="0 0 700.000000 700.000000"
 preserveAspectRatio="xMidYMid meet">
<metadata>
Created by potrace 1.11, written by Peter Selinger 2001-2013
</metadata>
<g transform="translate(0.000000,700.000000) scale(0.100000,-0.100000)"
fill="#000000" stroke="none">
<path d="M670 6993 c-314 -53 -554 -266 -642 -569 l-23 -79 0 -2845 0 -2845
23 -79 c78 -271 277 -470 548 -548 l79 -23 2845 0 2845 0 79 23 c271 78 470
277 548 548 l23 79 0 2845 0 2845 -23 79 c-78 269 -271 464 -542 548 l-75 23
-2830 1 c-1557 1 -2841 -1 -2855 -3z m1530 -1314 c66 -15 183 -75 237 -123 27
-23 458 -589 1010 -1326 530 -707 968 -1286 974 -1288 5 -2 9 442 9 1183 0
1294 -3 1230 56 1346 30 61 104 133 166 165 147 74 364 65 488 -21 94 -65 160
-174 179 -295 7 -43 11 -657 11 -1818 0 -1911 2 -1839 -56 -1953 -28 -57 -111
-142 -162 -168 -114 -58 -274 -67 -382 -21 -79 34 -156 85 -202 133 -22 23
-466 604 -986 1291 -521 687 -953 1251 -960 1254 -9 3 -12 -236 -12 -1163 0
-1030 -2 -1174 -16 -1228 -21 -80 -43 -123 -97 -183 -83 -91 -191 -134 -342
-134 -159 0 -285 63 -364 181 -44 65 -56 99 -71 199 -7 43 -10 669 -8 1845 3
1644 5 1784 20 1828 54 152 154 251 288 285 91 23 154 26 220 11z"/>
</g>
</svg>
